<svg xmlns="http://www.w3.org/2000/svg" xmlns:xlink="http://www.w3.org/1999/xlink" width="108" height="151" viewBox="0 0 108 151">
  <defs>
    <style>
      .cls-1 {
        fill: url(#linear-gradient);
      }

      .cls-2 {
        stroke: rgba(0,0,0,0);
        fill: url(#linear-gradient-2);
      }

      .cls-3 {
        fill: #1d2561;
        font-size: 40px;
        font-family: TTCommons-DemiBold, TT Commons;
        font-weight: 600;
      }

      .cls-4 {
        filter: url(#Intersection_1);
      }

      .cls-5 {
        filter: url(#Tracé_179);
      }
    </style>
    <linearGradient id="linear-gradient" x1="0.805" y1="0.202" x2="0.31" y2="0.781" gradientUnits="objectBoundingBox">
      <stop offset="0" stop-color="#4b60fb"/>
      <stop offset="1" stop-color="#3645b5"/>
    </linearGradient>
    <filter id="Tracé_179" x="7.173" y="0" width="93.655" height="100.6" filterUnits="userSpaceOnUse">
      <feOffset dy="3" input="SourceAlpha"/>
      <feGaussianBlur stdDeviation="3" result="blur"/>
      <feFlood flood-opacity="0.161"/>
      <feComposite operator="in" in2="blur"/>
      <feComposite in="SourceGraphic"/>
    </filter>
    <linearGradient id="linear-gradient-2" y1="0.248" x2="0.242" y2="0.783" gradientUnits="objectBoundingBox">
      <stop offset="0" stop-color="#4b60fb"/>
      <stop offset="1" stop-color="#3543b0"/>
    </linearGradient>
    <filter id="Intersection_1" x="11.672" y="9.285" width="62.739" height="84.817" filterUnits="userSpaceOnUse">
      <feOffset dx="2" dy="-1" input="SourceAlpha"/>
      <feGaussianBlur stdDeviation="2" result="blur-2"/>
      <feFlood flood-color="#1f2869" flood-opacity="0.522"/>
      <feComposite operator="in" in2="blur-2"/>
      <feComposite in="SourceGraphic"/>
    </filter>
  </defs>
  <g id="logo" transform="translate(-133.5 -136)">
    <g id="Groupe_44" data-name="Groupe 44" transform="translate(33.188 61.631)">
      <g class="cls-5" transform="matrix(1, 0, 0, 1, 100.31, 74.37)">
        <path id="Tracé_179-2" data-name="Tracé 179" class="cls-1" d="M41.57,31.512c5.163,0,8.749-1.133,12.2-3.678s6.181-9.706,9.253-11.319,12.131,2.064,13.62,4.795-.136,6.8-2.287,10.332a36.5,36.5,0,0,1-8,9.228,39.1,39.1,0,0,1-11.035,6.324A38.27,38.27,0,0,1,41.57,49.58a38.668,38.668,0,0,1-15.552-3.162A39.109,39.109,0,0,1,13.3,37.642a42.433,42.433,0,0,1-8.583-13.1A41.362,41.362,0,0,1,1.56,8.28a41.5,41.5,0,0,1,3.162-16.2A42.231,42.231,0,0,1,13.3-21.082a39.109,39.109,0,0,1,12.713-8.776A38.668,38.668,0,0,1,41.57-33.02a36.5,36.5,0,0,1,13.358,2.388,38.608,38.608,0,0,1,10.841,6.324,37.126,37.126,0,0,1,7.937,9.228c2.151,3.528,4.253,6.78,3.048,9.242S63.43,1.287,61.509-.8,58.88-4.734,56.8-7.336s-2.151-2.753-3.614-3.872a18.556,18.556,0,0,0-5.1-2.71,19.364,19.364,0,0,0-6.518-1.033,19.9,19.9,0,0,0-8.26,1.742,21.025,21.025,0,0,0-6.776,4.84,22.893,22.893,0,0,0-4.582,7.357A25.133,25.133,0,0,0,20.274,8.28a25.134,25.134,0,0,0,1.678,9.293,22.893,22.893,0,0,0,4.582,7.357,21.025,21.025,0,0,0,6.776,4.84A19.9,19.9,0,0,0,41.57,31.512Z" transform="translate(14.61 39.02)"/>
      </g>
      <g class="cls-4" transform="matrix(1, 0, 0, 1, 100.31, 74.37)">
        <path id="Intersection_1-2" data-name="Intersection 1" class="cls-2" d="M24.458,67.6a39.115,39.115,0,0,1-12.712-8.777,42.377,42.377,0,0,1-8.582-13.1A41.353,41.353,0,0,1,0,29.462a41.485,41.485,0,0,1,3.163-16.2A42.194,42.194,0,0,1,11.745.1l.1-.1C.949,55.423,24.206,54.237,42.109,65.008a71.114,71.114,0,0,1,6.99,4.773,40.739,40.739,0,0,1-9.09.981A38.654,38.654,0,0,1,24.458,67.6Z" transform="translate(16.17 17.84)"/>
      </g>
    </g>
    <text id="curses" class="cls-3" transform="translate(187.5 275)"><tspan x="-54" y="0">curses</tspan></text>
  </g>
</svg>
