<svg xmlns="http://www.w3.org/2000/svg" xmlns:xlink="http://www.w3.org/1999/xlink" width="105.6" height="139.2" viewBox="0 0 105.6 139.2"><defs><style>.a{fill:url(#a);}.b{stroke:rgba(0,0,0,0);fill:url(#d);}.c{fill:#114f30;}.d{filter:url(#e);}.e{filter:url(#b);}</style><linearGradient id="a" x1="0.805" y1="0.202" x2="0.31" y2="0.781" gradientUnits="objectBoundingBox"><stop offset="0" stop-color="#1abc8c"/><stop offset="1" stop-color="#23a665"/></linearGradient><filter id="b" x="5.973" y="0" width="93.655" height="100.6" filterUnits="userSpaceOnUse"><feOffset dy="3" input="SourceAlpha"/><feGaussianBlur stdDeviation="3" result="c"/><feFlood flood-opacity="0.161"/><feComposite operator="in" in2="c"/><feComposite in="SourceGraphic"/></filter><linearGradient id="d" y1="0.248" x2="0.242" y2="0.783" gradientUnits="objectBoundingBox"><stop offset="0" stop-color="#1abc8c"/><stop offset="1" stop-color="#0e7757"/></linearGradient><filter id="e" x="10.472" y="9.285" width="62.739" height="84.817" filterUnits="userSpaceOnUse"><feOffset dx="2" dy="-1" input="SourceAlpha"/><feGaussianBlur stdDeviation="2" result="f"/><feFlood flood-color="#1a7a4a" flood-opacity="0.522"/><feComposite operator="in" in2="f"/><feComposite in="SourceGraphic"/></filter></defs><g transform="translate(-134.7 -136)"><g transform="translate(33.188 61.631)"><g class="e" transform="matrix(1, 0, 0, 1, 101.51, 74.37)"><path class="a" d="M41.57,31.512c5.163,0,8.749-1.133,12.2-3.678s6.181-9.706,9.253-11.319,12.131,2.064,13.62,4.795-.136,6.8-2.287,10.332a36.5,36.5,0,0,1-8,9.228,39.1,39.1,0,0,1-11.035,6.324A38.27,38.27,0,0,1,41.57,49.58a38.668,38.668,0,0,1-15.552-3.162A39.109,39.109,0,0,1,13.3,37.642a42.433,42.433,0,0,1-8.583-13.1A41.362,41.362,0,0,1,1.56,8.28a41.5,41.5,0,0,1,3.162-16.2A42.231,42.231,0,0,1,13.3-21.082a39.109,39.109,0,0,1,12.713-8.776A38.668,38.668,0,0,1,41.57-33.02a36.5,36.5,0,0,1,13.358,2.388,38.608,38.608,0,0,1,10.841,6.324,37.126,37.126,0,0,1,7.937,9.228c2.151,3.528,4.253,6.78,3.048,9.242S63.43,1.287,61.509-.8,58.88-4.734,56.8-7.336s-2.151-2.753-3.614-3.872a18.556,18.556,0,0,0-5.1-2.71,19.364,19.364,0,0,0-6.518-1.033,19.9,19.9,0,0,0-8.26,1.742,21.025,21.025,0,0,0-6.776,4.84,22.893,22.893,0,0,0-4.582,7.357A25.133,25.133,0,0,0,20.274,8.28a25.134,25.134,0,0,0,1.678,9.293,22.893,22.893,0,0,0,4.582,7.357,21.025,21.025,0,0,0,6.776,4.84A19.9,19.9,0,0,0,41.57,31.512Z" transform="translate(13.41 39.02)"/></g><g class="d" transform="matrix(1, 0, 0, 1, 101.51, 74.37)"><path class="b" d="M24.458,67.6a39.115,39.115,0,0,1-12.712-8.777,42.377,42.377,0,0,1-8.582-13.1A41.353,41.353,0,0,1,0,29.462a41.485,41.485,0,0,1,3.163-16.2A42.194,42.194,0,0,1,11.745.1l.1-.1C.949,55.423,24.206,54.237,42.109,65.008a71.114,71.114,0,0,1,6.99,4.773,40.739,40.739,0,0,1-9.09.981A38.654,38.654,0,0,1,24.458,67.6Z" transform="translate(14.97 17.84)"/></g></g><path class="c" d="M-35-6.8a9.079,9.079,0,0,1-1.08,2.62,9.439,9.439,0,0,1-1.88,2.24A8.907,8.907,0,0,1-40.52-.38,8.166,8.166,0,0,1-43.6.2a8.6,8.6,0,0,1-3.54-.74,9.469,9.469,0,0,1-2.92-2.02,9.755,9.755,0,0,1-2-2.98A9.069,9.069,0,0,1-52.8-9.2a9.069,9.069,0,0,1,.74-3.66,9.755,9.755,0,0,1,2-2.98,9.469,9.469,0,0,1,2.92-2.02,8.6,8.6,0,0,1,3.54-.74,8.166,8.166,0,0,1,3.08.58,8.907,8.907,0,0,1,2.56,1.56,9.439,9.439,0,0,1,1.88,2.24A9.079,9.079,0,0,1-35-11.6h-4.6a4.219,4.219,0,0,0-.88-1.28,5.515,5.515,0,0,0-1.24-.9,3.843,3.843,0,0,0-1.88-.42,4.386,4.386,0,0,0-3.28,1.36A5,5,0,0,0-48.2-9.2a5,5,0,0,0,1.32,3.64A4.386,4.386,0,0,0-43.6-4.2a4,4,0,0,0,1.88-.4,5.1,5.1,0,0,0,1.24-.88A4.089,4.089,0,0,0-39.6-6.8Zm10.6,7a8.061,8.061,0,0,1-3-.54A6.557,6.557,0,0,1-29.74-1.9a7.1,7.1,0,0,1-1.52-2.46A9.174,9.174,0,0,1-31.8-7.6V-18.4h4.6V-8.2a4,4,0,0,0,1.06,2.9A3.636,3.636,0,0,0-23.4-4.2a3.636,3.636,0,0,0,2.74-1.1A4,4,0,0,0-19.6-8.2V-18.4H-15V0h-3.4l-.8-1.8a9.594,9.594,0,0,1-1.48,1,7.87,7.87,0,0,1-1.64.7A6.94,6.94,0,0,1-24.4.2ZM-2-18.6a3.446,3.446,0,0,1,.56.04q.24.04.44.08l.4.08v4.8q-.2-.04-.44-.08-.2-.04-.5-.08a5.015,5.015,0,0,0-.66-.04,3.636,3.636,0,0,0-2.74,1.1A4,4,0,0,0-6-9.8V0h-4.6V-18.4h3.4l.8,2a5.63,5.63,0,0,1,1.16-1.08,5.853,5.853,0,0,1,1.38-.78A4.818,4.818,0,0,1-2-18.6ZM5.6-5.8a2.643,2.643,0,0,0,.88,1.56A2.784,2.784,0,0,0,8.4-3.6a2.763,2.763,0,0,0,1.9-.62A1.821,1.821,0,0,0,11-5.6a1.1,1.1,0,0,0-.7-1,9.761,9.761,0,0,0-1.74-.66q-1.04-.3-2.26-.62a8.7,8.7,0,0,1-2.26-.94,5.7,5.7,0,0,1-1.74-1.6A4.345,4.345,0,0,1,1.6-13a5.148,5.148,0,0,1,.46-2.14A5.107,5.107,0,0,1,3.4-16.92a6.959,6.959,0,0,1,2.08-1.22A7.556,7.556,0,0,1,8.2-18.6,7.378,7.378,0,0,1,13.3-17a6.339,6.339,0,0,1,2.1,4H11a2.511,2.511,0,0,0-.86-1.2,2.58,2.58,0,0,0-1.74-.6,2.342,2.342,0,0,0-1.62.52A1.652,1.652,0,0,0,6.2-13a1.1,1.1,0,0,0,.7,1,9.761,9.761,0,0,0,1.74.66q1.04.3,2.26.64a8.79,8.79,0,0,1,2.26.98A5.737,5.737,0,0,1,14.9-8.06a4.611,4.611,0,0,1,.7,2.66,4.967,4.967,0,0,1-.48,2.14,5.334,5.334,0,0,1-1.36,1.78A6.807,6.807,0,0,1,11.62-.26,8.177,8.177,0,0,1,8.8.2,8.024,8.024,0,0,1,3.34-1.44,6.459,6.459,0,0,1,1.2-5.8Zm29.8.2a8.271,8.271,0,0,1-1.1,2.08,8.794,8.794,0,0,1-1.8,1.86A9.528,9.528,0,0,1,30.1-.32,7.947,7.947,0,0,1,27.2.2a8.6,8.6,0,0,1-3.54-.74,9.469,9.469,0,0,1-2.92-2.02,9.755,9.755,0,0,1-2-2.98A9.069,9.069,0,0,1,18-9.2a9.069,9.069,0,0,1,.74-3.66,9.755,9.755,0,0,1,2-2.98,9.469,9.469,0,0,1,2.92-2.02,8.6,8.6,0,0,1,3.54-.74,8.6,8.6,0,0,1,3.4.68A8.462,8.462,0,0,1,33.4-16a9.128,9.128,0,0,1,1.9,2.98A10.144,10.144,0,0,1,36-9.2a4.689,4.689,0,0,1-.04.62q-.04.3-.08.58-.04.32-.08.6H23a4.282,4.282,0,0,0,1.36,2.28,4.135,4.135,0,0,0,2.84.92,5.08,5.08,0,0,0,1.54-.2,4.605,4.605,0,0,0,1.06-.48,3.5,3.5,0,0,0,.8-.72Zm-8.2-8.6a4.193,4.193,0,0,0-2.94,1.04A4.689,4.689,0,0,0,22.8-10.6h8.8a4.689,4.689,0,0,0-1.46-2.56A4.193,4.193,0,0,0,27.2-14.2ZM42.8-5.8a2.643,2.643,0,0,0,.88,1.56,2.784,2.784,0,0,0,1.92.64,2.763,2.763,0,0,0,1.9-.62,1.821,1.821,0,0,0,.7-1.38,1.1,1.1,0,0,0-.7-1,9.761,9.761,0,0,0-1.74-.66q-1.04-.3-2.26-.62a8.7,8.7,0,0,1-2.26-.94,5.7,5.7,0,0,1-1.74-1.6A4.345,4.345,0,0,1,38.8-13a5.148,5.148,0,0,1,.46-2.14,5.107,5.107,0,0,1,1.34-1.78,6.959,6.959,0,0,1,2.08-1.22,7.556,7.556,0,0,1,2.72-.46A7.378,7.378,0,0,1,50.5-17a6.339,6.339,0,0,1,2.1,4H48.2a2.511,2.511,0,0,0-.86-1.2,2.58,2.58,0,0,0-1.74-.6,2.342,2.342,0,0,0-1.62.52A1.652,1.652,0,0,0,43.4-13a1.1,1.1,0,0,0,.7,1,9.761,9.761,0,0,0,1.74.66q1.04.3,2.26.64a8.79,8.79,0,0,1,2.26.98A5.738,5.738,0,0,1,52.1-8.06a4.611,4.611,0,0,1,.7,2.66,4.967,4.967,0,0,1-.48,2.14,5.334,5.334,0,0,1-1.36,1.78A6.807,6.807,0,0,1,48.82-.26,8.177,8.177,0,0,1,46,.2a8.024,8.024,0,0,1-5.46-1.64A6.459,6.459,0,0,1,38.4-5.8Z" transform="translate(187.5 275)"/></g></svg>