<?xml version="1.0" standalone="no"?>
<!DOCTYPE svg PUBLIC "-//W3C//DTD SVG 20010904//EN"
 "http://www.w3.org/TR/2001/REC-SVG-20010904/DTD/svg10.dtd">
<svg version="1.0" xmlns="http://www.w3.org/2000/svg"
 width="700.000000pt" height="700.000000pt" viewBox="0 0 700.000000 700.000000"
 preserveAspectRatio="xMidYMid meet">
<metadata>
Created by potrace 1.11, written by Peter Selinger 2001-2013
</metadata>
<g transform="translate(0.000000,700.000000) scale(0.100000,-0.100000)"
fill="#000000" stroke="none">
<path d="M3458 6785 c-2 -2 -39 -6 -83 -9 -44 -4 -93 -9 -110 -12 -16 -3 -41
-7 -55 -8 -82 -9 -285 -52 -400 -86 -213 -63 -429 -153 -632 -266 -99 -54
-248 -148 -285 -178 -10 -8 -42 -33 -71 -54 -385 -285 -734 -719 -948 -1179
-30 -65 -59 -127 -64 -138 -6 -11 -21 -51 -35 -90 -14 -38 -30 -79 -34 -90
-59 -133 -153 -562 -167 -765 -4 -47 -11 -90 -16 -97 -5 -7 -5 -14 2 -18 6 -3
8 -10 5 -14 -6 -11 -9 -397 -3 -408 3 -4 6 -30 7 -58 1 -27 8 -103 16 -169 8
-65 12 -122 9 -127 -3 -5 -1 -9 4 -9 5 0 12 -22 15 -48 3 -27 18 -98 32 -158
30 -124 33 -137 39 -163 3 -11 10 -29 16 -41 7 -12 10 -31 7 -41 -3 -10 -1
-17 4 -14 4 3 11 -7 15 -22 4 -15 20 -61 36 -101 15 -40 25 -78 22 -84 -4 -6
-3 -9 2 -5 5 3 18 -16 28 -41 10 -26 27 -64 37 -84 11 -21 17 -43 13 -50 -4
-6 -3 -8 4 -4 9 6 22 -16 22 -37 -1 -4 6 -15 15 -23 8 -9 13 -20 10 -25 -4 -5
-3 -9 2 -9 4 0 14 -15 22 -33 8 -17 23 -43 33 -56 11 -15 16 -32 13 -45 -4
-14 -3 -17 3 -8 7 10 12 6 23 -15 8 -15 26 -46 39 -68 14 -22 24 -43 22 -47
-1 -5 2 -8 7 -8 4 0 21 -19 36 -42 16 -24 47 -68 69 -98 22 -30 40 -58 38 -62
-1 -5 2 -8 7 -8 5 0 27 -24 48 -52 40 -56 95 -118 180 -206 29 -30 53 -59 53
-65 0 -6 3 -8 6 -4 3 3 20 -9 38 -26 49 -50 171 -160 197 -179 111 -80 167
-126 161 -133 -4 -5 -2 -5 5 -1 7 4 21 -2 33 -14 11 -11 22 -20 25 -19 6 0
127 -72 135 -80 6 -7 133 -75 218 -116 34 -17 59 -35 55 -40 -4 -4 -3 -5 4 -1
7 4 33 -2 57 -14 25 -11 50 -20 56 -20 6 0 8 -5 4 -12 -4 -7 -3 -8 4 -4 6 3
30 -2 54 -13 24 -11 62 -25 85 -32 24 -7 40 -16 36 -22 -3 -6 -1 -7 6 -3 10 6
74 -9 131 -31 8 -4 17 -7 20 -7 3 -1 33 -8 67 -16 54 -12 61 -16 50 -29 -10
-14 -10 -14 3 -4 15 11 110 7 110 -6 0 -3 10 -7 23 -7 43 -3 77 -8 77 -14 0
-3 24 -6 53 -6 75 -2 116 -7 112 -14 -2 -3 22 -5 53 -4 31 0 61 -1 67 -4 5 -3
27 -5 48 -3 28 2 43 -2 53 -16 13 -16 13 -16 8 0 -5 14 0 17 31 17 26 0 34 -3
29 -12 -6 -10 -4 -10 7 -2 16 12 29 12 48 0 10 -6 12 -5 7 2 -10 16 7 15 23 0
11 -11 13 -11 7 0 -4 6 -3 12 3 12 5 0 12 -6 14 -12 4 -10 6 -10 6 0 1 17 31
15 31 -2 0 -8 4 -17 9 -20 5 -4 7 3 4 14 -6 23 15 27 36 8 11 -10 13 -10 7 0
-5 8 1 12 18 12 14 0 26 -4 26 -10 0 -5 5 -10 11 -10 5 0 7 5 4 10 -3 6 4 10
17 11 13 0 42 3 66 5 36 4 42 2 42 -15 0 -11 4 -22 8 -25 5 -3 7 8 4 23 -3 20
0 28 12 28 9 0 16 -4 16 -9 0 -4 5 -8 11 -8 5 0 7 5 4 10 -4 6 5 10 20 10 18
0 24 -4 20 -12 -4 -7 0 -5 8 5 16 19 37 23 37 6 0 -5 -6 -7 -12 -3 -7 4 -10 3
-5 -1 4 -5 16 -9 27 -10 16 -1 18 1 7 14 -10 12 -9 14 6 8 9 -3 17 -2 17 3 0
6 5 10 11 10 5 0 7 -6 3 -12 -6 -10 -4 -10 7 -2 13 10 42 20 93 30 11 2 26 -2
35 -9 12 -10 14 -9 8 5 -5 14 -2 17 13 15 11 -2 23 -7 27 -12 5 -4 1 -5 -7 0
-8 5 -12 4 -7 0 16 -18 49 -12 58 12 5 12 12 23 16 24 31 3 59 11 72 22 10 8
12 8 8 1 -4 -7 0 -14 8 -17 10 -4 12 -1 8 10 -5 13 -2 15 15 11 12 -4 20 -3
17 1 -6 11 175 72 189 64 6 -3 8 -2 3 2 -7 8 52 35 81 37 6 1 12 5 12 10 0 4
5 8 11 8 20 0 227 98 247 117 7 7 18 13 23 13 5 0 27 11 49 25 22 14 40 23 40
20 0 -3 9 3 21 14 12 11 34 25 50 31 16 7 29 16 29 21 0 5 7 9 15 9 8 0 15 5
15 10 0 6 7 10 15 10 8 0 15 5 15 12 0 6 3 9 6 5 4 -3 12 -1 19 6 6 7 24 21
40 32 15 11 57 43 93 72 37 28 70 49 76 46 5 -3 6 -1 3 4 -4 6 10 23 31 39 20
15 41 34 45 41 5 7 13 11 18 7 5 -3 8 -2 7 3 -1 4 31 42 72 84 90 92 156 164
190 208 14 18 35 44 48 57 12 12 22 27 22 32 0 6 7 13 16 16 9 4 14 9 11 12
-5 5 10 27 41 60 7 8 10 14 5 14 -4 1 2 9 14 19 12 10 19 21 16 25 -4 3 -1 6
5 6 7 0 11 3 10 8 -3 8 51 94 64 103 5 3 9 9 8 13 -1 5 46 103 80 164 17 32
52 117 68 167 20 65 20 64 28 110 4 22 12 43 18 47 7 5 7 8 1 8 -7 0 -9 17 -5
48 7 61 -14 165 -45 218 -109 186 -607 407 -904 400 -190 -4 -249 -56 -511
-451 -159 -240 -212 -309 -299 -395 -77 -76 -161 -133 -286 -195 -253 -123
-538 -170 -880 -142 -292 23 -610 154 -855 354 -113 91 -256 251 -325 362 -5
9 -13 18 -16 21 -16 14 -134 238 -160 305 -34 83 -95 282 -104 337 -2 13 -6
39 -9 58 -3 19 -8 46 -11 59 -8 40 -19 220 -18 311 0 111 15 305 23 305 1 0 3
14 4 30 7 62 28 145 36 140 4 -3 6 4 3 14 -6 23 40 177 73 244 13 26 21 47 19
47 -6 0 102 205 140 265 32 50 87 121 155 200 49 57 166 168 220 209 102 77
269 180 278 172 3 -3 10 1 16 10 6 8 21 16 34 17 12 0 22 5 22 10 0 5 9 7 20
4 10 -3 18 -1 17 5 -3 12 141 61 160 54 8 -3 11 -1 8 4 -3 6 0 10 7 11 7 0 20
2 28 4 72 19 142 30 177 30 22 0 39 3 37 6 -2 4 27 7 64 9 37 1 83 3 102 4 19
1 43 -2 52 -6 10 -5 19 -4 23 2 4 6 9 8 13 6 4 -2 39 -7 77 -10 77 -7 104 -11
185 -28 30 -6 60 -13 67 -14 44 -8 210 -72 268 -102 17 -9 34 -16 38 -17 4 0
11 -6 16 -13 5 -8 11 -13 15 -13 41 7 306 -204 290 -231 -4 -6 -3 -8 3 -5 6 4
34 -21 62 -56 108 -132 141 -176 141 -186 0 -6 4 -11 8 -11 5 0 15 -12 23 -27
8 -16 17 -30 20 -33 9 -7 129 -190 129 -196 0 -3 7 -12 15 -21 8 -8 12 -19 9
-25 -4 -6 -3 -8 3 -5 5 3 18 -6 29 -21 41 -56 78 -94 108 -109 43 -22 164 -23
271 -1 49 10 96 16 104 13 9 -3 12 -3 8 1 -10 10 224 85 243 78 8 -3 11 -2 7
2 -4 4 32 24 80 44 86 36 160 70 196 90 9 6 25 15 35 20 9 6 24 13 32 17 25
11 123 85 148 110 12 14 28 39 35 56 19 46 20 152 2 222 -15 58 -109 262 -145
314 -9 14 -54 87 -100 161 -289 472 -674 830 -1162 1079 -271 139 -602 250
-823 277 -27 4 -53 8 -56 10 -4 2 -31 6 -60 10 -30 3 -70 8 -89 11 -38 5 -517
13 -522 8z m965 -6344 c-5 -19 -33 -19 -33 1 0 5 5 6 10 3 6 -3 10 -1 10 4 0
6 4 11 9 11 5 0 7 -9 4 -19z"/>
<path d="M4673 485 c0 -8 4 -12 9 -9 5 3 6 10 3 15 -9 13 -12 11 -12 -6z"/>
<path d="M4557 455 c-4 -8 -3 -16 1 -19 4 -3 9 4 9 15 2 23 -3 25 -10 4z"/>
<path d="M4590 456 c7 -7 13 -7 20 0 6 6 3 10 -10 10 -13 0 -16 -4 -10 -10z"/>
<path d="M4450 440 c-6 -11 -8 -20 -6 -20 3 0 10 9 16 20 6 11 8 20 6 20 -3 0
-10 -9 -16 -20z"/>
<path d="M4494 453 c3 -7 -1 -13 -11 -15 -15 -3 -15 -5 3 -10 22 -6 28 12 9
29 -4 4 -5 3 -1 -4z"/>
<path d="M4530 431 c0 -6 4 -13 10 -16 6 -3 7 1 4 9 -7 18 -14 21 -14 7z"/>
<path d="M4276 407 c-16 -12 -16 -13 2 -13 10 0 19 6 19 13 0 7 -1 13 -2 13
-1 0 -9 -6 -19 -13z"/>
<path d="M4344 395 c-18 -14 -18 -14 4 -8 12 3 22 9 22 14 0 12 -3 11 -26 -6z"/>
<path d="M4443 399 c9 -6 14 -15 11 -21 -4 -7 -2 -8 5 -4 14 9 -3 36 -23 36
-6 0 -3 -5 7 -11z"/>
<path d="M4486 402 c-3 -5 1 -9 9 -9 8 0 12 4 9 9 -3 4 -7 8 -9 8 -2 0 -6 -4
-9 -8z"/>
<path d="M4226 384 c-5 -14 -4 -15 9 -4 17 14 19 20 6 20 -5 0 -12 -7 -15 -16z"/>
<path d="M4276 367 c3 -10 9 -15 12 -12 3 3 0 11 -7 18 -10 9 -11 8 -5 -6z"/>
<path d="M4075 360 c-3 -5 -1 -10 4 -10 6 0 11 5 11 10 0 6 -2 10 -4 10 -3 0
-8 -4 -11 -10z"/>
<path d="M4115 360 c-3 -5 -1 -10 4 -10 6 0 11 5 11 10 0 6 -2 10 -4 10 -3 0
-8 -4 -11 -10z"/>
<path d="M3475 340 c3 -5 8 -10 11 -10 2 0 4 5 4 10 0 6 -5 10 -11 10 -5 0 -7
-4 -4 -10z"/>
</g>
</svg>
